<svg width="256" height="256" xmlns="http://www.w3.org/2000/svg" xmlns:xlink="http://www.w3.org/1999/xlink" xml:space="preserve" overflow="hidden"><g>
  <style>
    path {
      fill: #408F95;
    }
    @media (prefers-color-scheme: dark) {
      path {
        fill: #DDF0F1;
      }
    }
  </style>
<path d="M72.2667 208.4C67.7333 206.267 56 190.4 50 178.667 42.8 164.4 39.0667 144.133 42.4 137.733 45.4667 132.133 51.8667 128 57.7333 128 62.6667 128 64 128.8 70.6667 135.733 76 141.2 78.6667 145.2 79.8667 149.733 82 156.933 80.6667 159.6 77.6 154.667 76.4 152.8 71.4667 147.333 66.6667 142.267 60.2667 135.867 56.8 133.333 54.4 133.333 50.4 133.333 49.3333 135.467 49.3333 143.2 49.3333 155.867 63.8667 188.8 74.1333 199.333 82.9333 208.533 85.7333 204.4 79.3333 191.733 77.4667 188 76.2667 184.667 76.6667 184.267 77.0667 183.867 79.4667 184.533 82 185.733 88.4 188.8 90.6667 196.133 87.3333 203.2 86 206 83.4667 208.8 81.7333 209.467 77.6 211.067 77.4667 211.067 72.2667 208.4ZM59.8667 182.133C56.6667 176.667 53.8667 172.267 53.6 172.667 53.2 172.933 55.6 177.733 58.6667 183.333 61.8667 188.8 64.6667 193.067 64.9333 192.8 65.2 192.533 62.9333 187.733 59.8667 182.133Z" stroke="#000000" stroke-width="0.133333" fill="#3F8E94" transform="matrix(1 0 0 -1 0 256)"/>
<path d="M159.2 200C157.6 199.333 154.933 196.933 153.333 194.667 150 190 141.333 169.733 141.333 166.533 141.333 163.067 139.733 162.533 137.733 165.333 135.067 169.2 129.733 168.667 124.4 164 120 160 112.933 158.133 115.733 161.733 117.733 164.133 118.533 172.267 117.067 175.467 113.867 182.533 104.533 182 100.8 174.8 99.6 172.667 96.9333 169.733 94.8 168.533 90.5333 166 84 155.333 84 150.933 84 149.333 85.4667 146.533 87.2 144.533 93.3333 137.2 103.733 140.667 112 152.8 114.533 156.267 117.2 158.667 118.667 158.667 121.067 158.667 121.067 158.4 119.333 153.2 116.933 146.533 116.8 141.067 118.933 138.933 121.733 136.133 127.333 137.067 131.467 141.333 133.6 143.467 135.733 145.333 136.4 145.333 136.933 145.333 137.333 142.4 137.333 138.8 137.333 131.6 139.333 128.933 144.267 129.6 147.467 130 158.8 143.067 161.733 149.6 164.8 156.667 168.133 153.467 165.467 146.133 163.6 141.333 168 136 173.867 136 177.467 136 179.6 137.333 184.4 142.4 189.733 147.867 193.733 153.067 197.867 159.733 198.4 160.667 198.133 161.333 196.8 161.333 195.733 161.333 192.4 157.867 189.333 153.467 182.8 144.133 174.267 137.333 173.6 140.8 173.333 142 173.467 145.6 174 148.8 174.667 153.733 175.467 154.933 179.067 156.533 190.133 161.2 194.667 173.067 186 174.8 179.867 175.867 175.467 173.733 171.867 167.867 170.133 164.8 166.533 159.867 164 156.667 161.467 153.6 156.4 146.933 152.667 141.867 146.8 133.733 146 133.067 145.6 135.867 145.333 137.733 145.467 142.933 146 147.6 146.8 155.333 147.6 157.067 155.467 167.467 165.067 180.267 172 191.733 172 195.067 172 197.467 167.067 201.333 164 201.2 162.933 201.2 160.667 200.667 159.2 200ZM166.267 195.333C167.6 191.733 150.667 162.133 148.533 164.4 148.267 164.667 150.4 170.267 153.333 176.8 163.067 198 164.4 200 166.267 195.333ZM111.6 169.733C110.667 160.933 108.8 158.133 105.2 160.133 103.867 160.8 102.667 162.667 102.667 164.267 102.667 167.867 109.467 178.667 111.067 177.733 111.733 177.333 112 173.733 111.6 169.733ZM185.333 169.2C185.333 166.267 178.533 158.667 176 158.667 174.933 158.667 175.067 159.333 176.267 160.533 177.333 161.467 179.2 164.8 180.533 167.733 183.067 173.333 185.333 174 185.333 169.2ZM104 158.667C107.867 158.667 108.267 156.667 104.933 152.533 95.7333 140.533 89.8667 141.2 94.1333 153.733 96.4 160.4 96.8 161.467 97.2 163.6 97.2 164.133 98.2667 163.2 99.4667 161.6 100.533 160 102.667 158.667 104 158.667ZM137.067 162.4C138 161.467 138.667 158.667 138.667 156.133 138.667 152.4 137.467 150.4 132.4 145.467 127.333 140.667 125.867 139.867 125.6 141.733 125.067 144.4 128.8 156.667 131.467 161.067 133.6 164.4 134.8 164.667 137.067 162.4Z" stroke="#000000" stroke-width="0.133333" fill="#3F8E94" transform="matrix(1 0 0 -1 0 256)"/>
<path d="M87.8667 129.733C79.4667 119.733 65.3333 81.6 67.2 74.1333 68.2667 69.8667 74.5333 64 77.8667 64 81.7333 64 91.4667 74 95.3333 82.1333L98.4 88.5333 98.1333 80.6667C97.4667 65.8667 97.4667 65.7333 95.8667 68 94.8 69.4667 94.6667 68.6667 95.2 64.9333 96.1333 58.1333 98.1333 56 103.467 56 107.2 56 108.267 56.6667 109.333 59.4667 111.867 66 110.933 67.6 107.067 63.3333L103.333 59.3333 102.933 62.9333C102.133 69.3333 113.867 103.333 119.467 110.8 122.533 114.933 122.533 115.467 120.4 116.933 115.467 120.667 114.667 120 102 100.667 96.2667 91.8667 88.5333 81.2 84.8 76.8 79.2 70.2667 78 69.4667 77.2 71.4667 76 74.6667 76.8 79.4667 80.4 91.3333 82 96.5333 83.3333 101.333 83.4667 102 83.6 102.8 83.8667 104 84 104.667 84.1333 105.467 84.2667 106.4 84.1333 107.067 84.1333 107.6 84.6667 108 85.4667 108 86.1333 108 86.5333 108.533 86.1333 109.067 85.8667 109.6 88.1333 113.733 91.4667 118.133 94.8 122.533 97.2 127.2 97.0667 128.667 96.5333 132.267 90.5333 132.933 87.8667 129.733Z" stroke="#000000" stroke-width="0.133333" fill="#3F8E94" transform="matrix(1 0 0 -1 0 256)"/>
<path d="M147.733 105.2C145.067 103.733 135.6 90.8 128.667 79.2 123.733 71.0667 122.267 71.3333 126.533 79.7333 130.133 87.0667 133.733 99.6 132.933 102 131.733 105.067 125.333 104.667 125.333 101.333 125.333 100 123.733 94.6667 121.867 89.7333 116.4 75.2 113.333 66.4 113.333 64.8 113.467 64 114.267 65.2 115.333 67.3333 117.467 72.2667 117.867 71.2 115.867 65.6 115.067 63.2 114 61.6 113.333 62 112.267 62.6667 110 54.9333 108.667 45.2 107.6 38.1333 109.467 33.3333 113.067 33.3333 114.933 33.3333 115.733 35.4667 117.2 44.4 118.4 52 120.267 58.1333 123.733 64.6667 126.4 69.8667 128.933 74.2667 129.333 74.6667 129.733 75.0667 131.733 78 133.867 81.3333 138.933 89.2 148 100 149.467 100 155.067 100 137.467 70.4 131.067 69.0667 129.333 68.6667 129.467 68.1333 131.6 65.4667 135.067 61.2 138 62.4 144.4 70.5333 147.2 74 152 78.2667 155.067 79.7333 158.133 81.3333 161.867 83.6 163.2 84.6667 167.6 88 164.267 88.6667 158.533 85.6 151.867 82 150.933 82 153.867 85.2 157.333 89.0667 158.933 96 157.2 100.933 156.4 103.333 155.333 105.333 154.667 105.333 154 105.333 152.8 105.6 151.733 106 150.8 106.267 148.933 106 147.733 105.2Z" stroke="#000000" stroke-width="0.133333" fill="#3F8E94" transform="matrix(1 0 0 -1 0 256)"/>
<path d="M170.133 100.533C167.6 98.1333 167.467 95.7333 169.467 84.2667 170.8 76.5333 170.8 75.4667 168.667 74.2667 167.333 73.6 164 70.9333 161.2 68.4 153.6 61.6 154.4 55.3333 162.8 53.4667 173.467 51.0667 180 57.0667 180 69.0667 180 75.7333 180.133 75.8667 186 78.8 192.4 82 196.933 86.1333 195.6 87.6 195.067 88 191.2 86.5333 186.8 84.1333 182.533 81.8667 178.667 80 178.4 80 177.6 80 176.8 89.2 176.933 96.4 177.067 101.733 176.8 102.667 174.667 102.667 173.333 102.667 171.2 101.733 170.133 100.533ZM172 69.4667C172 66.4 168.8 59.7333 166.667 58.6667 158.933 54.5333 157.867 59.6 164.933 66.1333 169.867 70.6667 172 71.7333 172 69.4667Z" stroke="#000000" stroke-width="0.133333" fill="#3F8E94" transform="matrix(1 0 0 -1 0 256)"/>
</g></svg>